<svg xmlns="http://www.w3.org/2000/svg" viewBox="0 0 64 64">
  <defs><linearGradient id="g" x1="0" y1="0" x2="1" y2="1"><stop stop-color="#6ee7b7"/><stop offset="1" stop-color="#38bdf8"/></linearGradient></defs>
  <rect width="64" height="64" rx="16" fill="#0b0f19"/>
  <rect x="6" y="6" width="52" height="52" rx="13" fill="url(#g)"/>
  <path d="M17 45V19h11c7 0 11 4 11 10s-4 10-11 10h-4v6zm7-12h4c3 0 5-1 5-4s-2-4-5-4h-4z" fill="#07110e"/>
  <path d="m38 45 8-26h6l6 20v6h-6l-1-5h-7l-1 5zm8-11h4l-2-8z" fill="#07110e"/>
</svg>
